<?xml version="1.0" standalone="no"?>
<!DOCTYPE svg PUBLIC "-//W3C//DTD SVG 20010904//EN"
 "http://www.w3.org/TR/2001/REC-SVG-20010904/DTD/svg10.dtd">
<svg version="1.0" xmlns="http://www.w3.org/2000/svg"
 width="300.000000pt" height="300.000000pt" viewBox="0 0 300.000000 300.000000"
 preserveAspectRatio="xMidYMid meet">

<g transform="translate(0.000000,300.000000) scale(0.100000,-0.100000)"
fill="#000000" stroke="none">
<path d="M113 2949 c-47 -9 -78 -33 -97 -72 -15 -32 -16 -153 -16 -1413 l0
-1377 25 -33 c15 -20 41 -38 63 -44 26 -8 452 -10 1422 -8 1303 3 1387 4 1417
21 72 39 68 -18 71 867 l2 795 -657 632 -658 632 -695 1 c-382 1 -729 3 -770
4 -41 1 -90 -1 -107 -5z m1203 -727 c93 -48 155 -124 180 -223 28 -111 -8
-227 -97 -311 -69 -65 -141 -91 -239 -86 -89 4 -150 30 -213 92 -70 68 -92
124 -92 236 0 74 4 103 19 130 45 84 114 147 193 176 57 21 196 14 249 -14z
m828 6 c9 -12 16 -34 16 -49 0 -20 -134 -196 -541 -710 -297 -376 -550 -692
-561 -701 -31 -27 -146 -25 -182 3 -33 26 -34 66 -4 105 23 29 876 1107 1015
1282 l74 92 84 0 c75 0 85 -2 99 -22z m-169 -851 c60 -31 125 -96 156 -157 33
-67 38 -177 9 -252 -28 -75 -96 -150 -168 -185 -48 -24 -69 -28 -137 -28 -98
1 -167 29 -234 96 -66 66 -95 137 -96 230 0 68 4 84 35 144 41 81 106 139 182
167 75 27 185 20 253 -15z m725 -482 l169 -105 3 -93 c2 -50 4 -157 3 -237 l0
-145 -93 -60 c-159 -103 -244 -157 -268 -167 -23 -11 -71 16 -288 159 -43 29
-83 53 -88 53 -4 0 -8 108 -8 241 0 264 -3 251 66 289 22 12 46 25 54 30 8 5
58 34 110 65 52 31 102 60 110 65 33 20 68 6 230 -95z"/>
<path d="M1103 2041 c-114 -72 -63 -251 72 -251 127 0 186 147 95 235 -40 38
-119 46 -167 16z"/>
<path d="M1759 1197 c-47 -31 -71 -82 -64 -132 18 -120 155 -163 239 -76 40
42 47 115 17 164 -40 66 -130 86 -192 44z"/>
<path d="M2193 558 c3 -10 2 -20 -3 -23 -6 -4 -10 -12 -10 -18 0 -8 3 -7 9 2
5 8 18 12 31 8 27 -7 22 11 -10 32 -22 15 -24 15 -17 -1z"/>
<path d="M2251 478 c0 -10 -9 -18 -18 -18 -15 0 -16 -2 -3 -10 19 -12 33 2 27
26 -4 17 -5 17 -6 2z"/>
<path d="M2584 426 c-3 -9 -13 -16 -21 -16 -8 0 -11 -5 -8 -10 4 -6 13 -7 23
-1 11 6 24 6 35 0 22 -13 22 -7 -3 21 -17 20 -20 20 -26 6z"/>
<path d="M2546 336 c3 -9 13 -16 22 -16 8 0 13 1 11 3 -2 1 -12 9 -22 16 -15
12 -17 12 -11 -3z"/>
<path d="M2735 2787 c94 -90 192 -183 219 -207 l48 -45 -3 160 c-4 148 -6 162
-27 193 -41 56 -63 62 -244 62 l-162 0 169 -163z"/>
<path d="M2232 2807 c-61 -62 -112 -117 -112 -123 0 -6 8 -18 18 -27 17 -16
20 -15 52 18 l33 34 43 -39 c70 -64 118 -65 179 -5 28 28 35 44 35 73 0 21 -7
49 -16 62 -20 29 -106 120 -114 120 -3 0 -56 -51 -118 -113z m160 -4 c15 -15
28 -37 28 -49 0 -22 -51 -74 -72 -74 -18 0 -78 50 -78 65 0 11 77 84 89 85 3
0 18 -12 33 -27z"/>
<path d="M2489 2642 c-84 -54 -135 -135 -119 -191 19 -67 82 -121 141 -121 44
0 106 43 156 109 58 75 38 162 -48 210 -49 28 -77 26 -130 -7z m125 -53 c19
-15 26 -30 26 -55 0 -29 -9 -45 -54 -90 -66 -66 -100 -71 -140 -23 -14 17 -26
36 -26 43 0 39 110 146 149 146 10 0 30 -9 45 -21z"/>
<path d="M2720 2418 c-28 -27 -31 -37 -27 -69 3 -20 17 -54 31 -75 29 -42 32
-64 14 -82 -25 -25 -56 -13 -102 40 -38 44 -47 50 -60 38 -22 -17 -21 -21 17
-69 71 -90 135 -105 194 -46 41 41 41 67 -2 135 -27 43 -31 70 -13 88 22 22
41 13 90 -40 44 -48 49 -51 64 -36 18 17 14 27 -26 74 -71 82 -127 95 -180 42z"/>
</g>
</svg>
